<svg xmlns="http://www.w3.org/2000/svg" width="48" height="48" viewBox="0 0 48 48" fill="none"><g clip-path="url(#clip0_115_597)"><path d="M14.7268 8.67261H41.5704C45.1157 8.67261 48 11.5565 48 15.1018V34.4286C48 37.9746 45.1157 40.8593 41.5704 40.8593H40.9215L42.9056 45.4219C43.3861 46.5256 43.0371 47.0815 42.7863 47.3148C42.6398 47.4507 42.3816 47.6122 41.9806 47.6122C41.6938 47.6122 41.3339 47.5294 40.8889 47.2961L28.6278 40.8593H14.7268C11.1815 40.8593 8.29761 37.9746 8.29761 34.4286V15.1018C8.29761 11.5565 11.1815 8.67261 14.7268 8.67261ZM38.7579 27.1941C40.0964 27.1941 41.1859 26.1046 41.1859 24.7654C41.1859 23.4265 40.0964 22.3374 38.7579 22.3374C37.4191 22.3374 36.3296 23.4265 36.3296 24.7654C36.3296 26.1046 37.4191 27.1941 38.7579 27.1941ZM27.6877 27.1941C29.0266 27.1941 30.1165 26.1046 30.1165 24.7654C30.1165 23.4265 29.0266 22.3374 27.6877 22.3374C26.3489 22.3374 25.259 23.4265 25.259 24.7654C25.259 26.1046 26.3489 27.1941 27.6877 27.1941ZM17.54 27.1941C18.8793 27.1941 19.9688 26.1046 19.9688 24.7654C19.9688 23.4265 18.8793 22.3374 17.54 22.3374C16.2012 22.3374 15.1117 23.4265 15.1117 24.7654C15.1117 26.1046 16.2012 27.1941 17.54 27.1941Z" fill="#F1F1F1"></path><path d="M6.4292 0.375H33.2728C36.4973 0.375 39.1743 2.76086 39.6324 5.86011H14.7268C9.63098 5.86011 5.48511 10.006 5.48511 15.1018V32.4917C2.38586 32.0336 0 29.3562 0 26.1313V6.8042C0 3.25928 2.88428 0.375 6.4292 0.375Z" fill="#EEB644"></path></g><defs><clipPath id="clip0_115_597"><rect width="48" height="48" fill="white" transform="matrix(-1 0 0 1 48 0)"></rect></clipPath></defs></svg>