<svg xmlns="http://www.w3.org/2000/svg" width="48" height="48" viewBox="0 0 48 48" fill="none"><g clip-path="url(#clip0_115_630)"><path d="M24 7.81396C15.075 7.81396 7.81396 15.075 7.81396 24C7.81396 32.925 15.075 40.186 24 40.186C32.925 40.186 40.186 32.925 40.186 24C40.186 15.075 32.925 7.81396 24 7.81396ZM31.582 20.448L22.11 29.92C21.4567 30.5735 20.3957 30.5739 19.7421 29.92L16.418 26.5958C15.7641 25.9419 15.7641 24.8818 16.418 24.2279C17.0719 23.574 18.1321 23.574 18.7859 24.2279L20.926 26.368L29.214 18.0801C29.8678 17.4262 30.928 17.4262 31.5819 18.0801C32.2359 18.7339 32.2359 19.7941 31.582 20.448Z" fill="#F1F1F1"></path><path d="M24 0C10.7352 0 0 10.734 0 24C0 37.2648 10.734 48 24 48C37.2648 48 48 37.266 48 24C48 10.7352 37.266 0 24 0ZM24 43.5349C13.2285 43.5349 4.46513 34.7715 4.46513 24C4.46513 13.2285 13.2285 4.46513 24 4.46513C34.7715 4.46513 43.5349 13.2285 43.5349 24C43.5349 34.7715 34.7715 43.5349 24 43.5349Z" fill="#EEB644"></path></g><defs><clipPath id="clip0_115_630"><rect width="48" height="48" fill="white"></rect></clipPath></defs></svg>